{"title":"Bunny Wailer - 1986-07-12 - Long Beach Arena, Long Beach, CA","uid":8745819,"size":837782608,"categoryP":"audio","categoryS":"flac","magnet":"?xt=urn:btih:6e20b473a8a6bd9fba3dac831b9f7990854c2abd&amp;dn=Bunny+Wailer+-+1986-07-12+-+Long+Beach+Arena%2C+Long+Beach%2C+CA&amp;tr=udp%3A%2F%2Ftracker.openbittorrent.com%3A80&amp;tr=udp%3A%2F%2Fopen.demonii.com%3A1337&amp;tr=udp%3A%2F%2Ftracker.coppersurfer.tk%3A6969&amp;tr=udp%3A%2F%2Fexodus.desync.com%3A6969","seeders":1,"leechers":1,"uploader":"TUFF_GONG","files":44,"time":1374918958,"description":" &lt;a href=&quot;http://veryrare.org&quot; rel=&quot;nofollow&quot; target=&quot;_NEW&quot;&gt;http://veryrare.org&lt;/a&gt;\n\nBUNNY WAILER\nRoots Radics Band\nLong Beach Arena\nLong Beach, CA\nJuly 12, 1986\n\nSoundboard \n\nDisc One / First Set (78:08)\n\n01 The Old Dragon \n02 Bunny Speaks - &quot;In the Beginning&quot;\n03 Rastaman \n04 Blackheart Man \n05 Armagideon \n06 Bunny Speaks - &quot;Greetings&quot;\n07 Fighting Against Convictions \n08 Fig Tree \n09 Bunny Speaks - &quot;The Music of Kings&quot;\n10 Dreamland \n11 Love Fire \n12 Bright Soul \n13 Struggle \n14 Rise And Shine \n15 Bunny Speaks - &quot;We Are the Civilized People of Now&quot;\n16 Rockers \n\nDisc Two / Start of Second Set (36:33)\n\n01 Intro \n02 Rock And Groove \n03 Bunny Speaks - &quot;No Wooden Foot&quot;\n04 Haughty Tempo \n05 Bunny Speaks - &quot;Reggae Healing&quot;\n06 Jolly Session \n07 Bunny Speaks - &quot;From 92 to 2&quot;\n08 Hot Foot Head \n09 Bunny Speaks - &quot;Reggae Baptism&quot;\n10 Camouflage \n11 Bunny Speaks - &quot;Authentic&quot;\n12 Rule Dance Hall \n\nDisc Three / End of Second Set (47:18)\n\n01 Bunny Speaks - &quot;Man with a Bucket&quot;\n02 Roots Man Skanking \n03 Bunny Speaks - &quot;Ants Can Skank&quot; \n04 Dance Rock \n05 Cool Runnings \n06 Bunny Speaks - &quot;Restore Our Souls&quot;\n(Missing: Old Time Sinting) \n07 Rule This Land \n08 Soul Rebel \n09 Hypocrite \n10 I'm The Toughest \n11 Crucial \n12 Bunny Speaks - &quot;Livication&quot; \n13 Crazy Baldhead \n(Missing: No Woman No Cry) \n\nSource: Soundboard &gt; Cx? &gt; C &gt; Transfer to WAV\nTransfer: Cassettes &gt; Sony TC-D5M &gt; SoundBlaster &gt; WAV &gt; Soundforge &gt; \nCD-Wave (for ID's) &gt; TLH (for checksums and SBE-OK) &gt; FLAC Frontend \n\nThis was Bunny's first US gig since 1973, and possibly his greatest solo \nconcert ever performed. It certainly was the longest show, and presents \na nice overview of Bunny's musical career to that point. I got these \ntapes in 1987 from someone who worked in the concert lighting business \nin Southern California. \n\nThere's a lot of tape-surface noise across the entire sound spectrum in \nthis recording. This may be from wrong Dolby decoding in a pervious \ngeneration, from too many tape generations, or possibly from the master \ntape itself. I removed some hiss from the high-end, but not too much, \nsince I didn't want to muffle the music. \n\nNoted flaws: Bunny's vocals over-saturate and distort in a few spots. \nThere's a cut in the middle of &quot;Dance Rock&quot; and it sounds like a few \nminutes are missing. The beginning of &quot;Rule This Land&quot; fades in. And I've \nnoted the two songs that are missing entirely. Otherwise, it's all there. \n\nI performed numerous operations with Soundforge: Repaired the pitch  \nwhich was off in the first set tape, made fades and edits where needed, \nremoved some hiss, repaired several dropouts, smoothed some harsh spots \nthat were distorted, and generally fixed things where ever I could.\n\nIf you enjoy this, then support Bunny and go buy some of his many great \nalbums, like &quot;Sings the Wailers&quot;, &quot;Blackheart Man&quot; or &quot;Rule Dance Hall&quot;.\nLIVE IN PEACE -- TRADE FREELY -- ENJOY GOOD MUSIC! (September 2005)\n\nShntool Output:\n\n    length     expanded size   cdr  WAVE problems filename\n     9:29.20      100418684    ---   --   ---xx   bunny1986-07-12d1t01.flac\n     3:05.38       32723420    ---   --   ---xx   bunny1986-07-12d1t02.flac\n     4:10.74       44274092    ---   --   ---xx   bunny1986-07-12d1t03.flac\n     6:46.19       71663132    ---   --   ---xx   bunny1986-07-12d1t04.flac\n     6:33.14       69358172    ---   --   ---xx   bunny1986-07-12d1t05.flac\n     0:45.36        8022716    ---   --   ---xx   bunny1986-07-12d1t06.flac\n     6:48.72       72140588    ---   --   ---xx   bunny1986-07-12d1t07.flac\n     3:44.32       39588908    ---   --   ---xx   bunny1986-07-12d1t08.flac\n     6:39.13       70414220    ---   --   ---xx   bunny1986-07-12d1t09.flac\n     3:31.70       37385084    ---   --   ---xx   bunny1986-07-12d1t10.flac\n     4:22.18       46259180    ---   --   ---xx   bunny1986-07-12d1t11.flac\n     4:35.20       48557084    ---   --   ---xx   bunny1986-07-12d1t12.flac\n     5:49.15       61598924    ---   --   ---xx   bunny1986-07-12d1t13.flac\n     5:28.37       57946268    ---   --   ---xx   bunny1986-07-12d1t14.flac\n     3:33.62       37719068    ---   --   ---xx   bunny1986-07-12d1t15.flac\n     2:44.41       29026076    ---   --   ---xx   bunny1986-07-12d1t16.flac\n     0:32.23        5698940    ---   --   ---xx   bunny1986-07-12d2t01.flac\n     5:54.55       62575004    ---   --   ---xx   bunny1986-07-12d2t02.flac\n     0:36.27        6413948    ---   --   ---xx   bunny1986-07-12d2t03.flac\n     4:12.02       44457548    ---   --   ---xx   bunny1986-07-12d2t04.flac\n     0:28.51        5059196    ---   --   ---xx   bunny1986-07-12d2t05.flac\n     4:06.09       43415612    ---   --   ---xx   bunny1986-07-12d2t06.flac\n     0:43.42        7684028    ---   --   ---xx   bunny1986-07-12d2t07.flac\n     5:58.27       63214748    ---   --   ---xx   bunny1986-07-12d2t08.flac\n     1:04.52       11411948    ---   --   ---xx   bunny1986-07-12d2t09.flac\n     5:23.25       57036044    ---   --   ---xx   bunny1986-07-12d2t10.flac\n     2:31.45       26742284    ---   --   ---xx   bunny1986-07-12d2t11.flac\n     5:01.19       53141132    ---   --   ---xx   bunny1986-07-12d2t12.flac\n     0:43.26        7646396    ---   --   ---xx   bunny1986-07-12d3t01.flac\n     6:38.31       70280156    ---   --   ---xx   bunny1986-07-12d3t02.flac\n     0:48.50        8584844    ---   --   ---xx   bunny1986-07-12d3t03.flac\n     5:02.47       53383388    ---   --   ---xx   bunny1986-07-12d3t04.flac\n     6:28.38       68532620    ---   --   ---xx   bunny1986-07-12d3t05.flac\n     4:37.03       48869900    ---   --   ---xx   bunny1986-07-12d3t06.flac\n     3:51.31       40821356    ---   --   ---xx   bunny1986-07-12d3t07.flac\n     3:13.25       34104044    ---   --   ---xx   bunny1986-07-12d3t08.flac\n     3:23.21       35858636    ---   --   ---xx   bunny1986-07-12d3t09.flac\n     4:08.41       43843676    ---   --   ---xx   bunny1986-07-12d3t10.flac\n     4:03.17       42905228    ---   --   ---xx   bunny1986-07-12d3t11.flac\n     0:48.43        8568380    ---   --   ---xx   bunny1986-07-12d3t12.flac\n     3:31.19       37265132    ---   --   ---xx   bunny1986-07-12d3t13.flac\n   162:00.00     1714609804 B \t\tThere were no sector boundary errors.\n   (totals for 41 files, 0.4886 overall compression ratio)\n\nFLAC Fingerprints:\n\nbunny1986-07-12d1t01.flac:210dafa6f3042ca8b330e09305246085\nbunny1986-07-12d1t02.flac:2fb67f3eedf2b774b929f362b818bafa\nbunny1986-07-12d1t03.flac:4b395dac342bf897c96d71c3816661ba\nbunny1986-07-12d1t04.flac:0ba4cc2a2cd3f0e8d7359c18ea4bcb8f\nbunny1986-07-12d1t05.flac:c931ac368dcced54eeb46be1da1ef65e\nbunny1986-07-12d1t06.flac:bbaf6150df0fd8e59b563e340b76b69f\nbunny1986-07-12d1t07.flac:bef5e178f5d02292b4292cc1fdcde896\nbunny1986-07-12d1t08.flac:2468ee91bec1a39bf2ccfd261f012761\nbunny1986-07-12d1t09.flac:8ae587e9f63d00474308f184689d5bbe\nbunny1986-07-12d1t10.flac:520a6249b4c17a7be30f2d8b1c67b517\nbunny1986-07-12d1t11.flac:de16ff3fec6ddd4395de67eae8254478\nbunny1986-07-12d1t12.flac:d25a71d45f7e6d17f8d71cb88dbb3c47\nbunny1986-07-12d1t13.flac:ad515faecd79985be26c71eaab05235d\nbunny1986-07-12d1t14.flac:ec84447bdc3f02dda3d51bab192f676c\nbunny1986-07-12d1t15.flac:79aafec1379098c50139ed28cb51f000\nbunny1986-07-12d1t16.flac:140ccf7dd8a9d8dd0787f659011a59e9\nbunny1986-07-12d2t01.flac:26e647a8b7f5adff3d760069af1de0af\nbunny1986-07-12d2t02.flac:eaddc8a28db0ab77b3dcb2a90d75a52b\nbunny1986-07-12d2t03.flac:630d0738e068eedd4701f6ad8bf4ef50\nbunny1986-07-12d2t04.flac:56bea7366e67c3f2dac4ec182e1cb795\nbunny1986-07-12d2t05.flac:eaa7e8854badd2be813b3e0a51c196df\nbunny1986-07-12d2t06.flac:140636f961dbc6d6af321758be8d2453\nbunny1986-07-12d2t07.flac:a77dfd2be03a3aa5eb8eb7c44fd4b1e6\nbunny1986-07-12d2t08.flac:aa8795d1758152c4e7d89b3d934cfdf9\nbunny1986-07-12d2t09.flac:851446da7124ee3174c14ee1ea196402\nbunny1986-07-12d2t10.flac:abbaca745cbf103cad0378c8f5eb77a0\nbunny1986-07-12d2t11.flac:c559585feb9486325388ecb8a6636bdd\nbunny1986-07-12d2t12.flac:674402c4ca65ad1bb931b3aa80091095\nbunny1986-07-12d3t01.flac:93e84b4b7bc83a28f8dfd894a8193935\nbunny1986-07-12d3t02.flac:65ea14739a68c29069b068bbf3696c1e\nbunny1986-07-12d3t03.flac:63fa955d2d9811a7338d28ca8e8aa89c\nbunny1986-07-12d3t04.flac:8d36f54f852fcbf1d0c2b870c3cfc730\nbunny1986-07-12d3t05.flac:5415171eff2441e2e4e1cceb66c802dc\nbunny1986-07-12d3t06.flac:3e771c9cb35f64d40fdb037d392f1cbc\nbunny1986-07-12d3t07.flac:56498f0d507e6158d9f5401155369dea\nbunny1986-07-12d3t08.flac:18fd88f0b7bcc72fedc20aaf39a739c5\nbunny1986-07-12d3t09.flac:875269bae3d6f998836b31e4c357383a\nbunny1986-07-12d3t10.flac:5862ddf9dc6ecc1e3890ec02999061c7\nbunny1986-07-12d3t11.flac:21f0051e5e5d2768009f7f1046ff196b\nbunny1986-07-12d3t12.flac:2ac4aacce95409605b4dba17d43b0300\nbunny1986-07-12d3t13.flac:e31eab386c55aa48694eefb86c036fec\n","torrent":{"xt":"urn:btih:6e20b473a8a6bd9fba3dac831b9f7990854c2abd","amp;dn":"Bunny+Wailer+-+1986-07-12+-+Long+Beach+Arena%2C+Long+Beach%2C+CA","amp;tr":["udp%3A%2F%2Ftracker.openbittorrent.com%3A80","udp%3A%2F%2Fopen.demonii.com%3A1337","udp%3A%2F%2Ftracker.coppersurfer.tk%3A6969","udp%3A%2F%2Fexodus.desync.com%3A6969"],"infoHash":"6e20b473a8a6bd9fba3dac831b9f7990854c2abd","infoHashBuffer":{"type":"Buffer","data":[110,32,180,115,168,166,189,159,186,61,172,131,27,159,121,144,133,76,42,189]},"announce":[],"urlList":[]}}